<mxfile host="app.diagrams.net" modified="2023-12-09T18:18:19.427Z" agent="Mozilla/5.0 (Windows NT 10.0; Win64; x64) AppleWebKit/537.36 (KHTML, like Gecko) Chrome/119.0.0.0 Safari/537.36" etag="NgaALvIZHhidbJP1DCwO" version="22.1.7" type="google">
  <diagram name="ページ1" id="Y4g7GDr6RMWqJRZvMr0a">
    <mxGraphModel grid="1" page="1" gridSize="10" guides="1" tooltips="1" connect="1" arrows="1" fold="1" pageScale="1" pageWidth="827" pageHeight="1169" math="0" shadow="0">
      <root>
        <mxCell id="0" />
        <mxCell id="1" parent="0" />
        <mxCell id="AdvIOZ4FNBdAzbDXDxo8-5" style="edgeStyle=orthogonalEdgeStyle;rounded=0;orthogonalLoop=1;jettySize=auto;html=1;" edge="1" parent="1" source="AdvIOZ4FNBdAzbDXDxo8-1" target="AdvIOZ4FNBdAzbDXDxo8-4">
          <mxGeometry relative="1" as="geometry">
            <mxPoint x="340" y="300" as="targetPoint" />
          </mxGeometry>
        </mxCell>
        <mxCell id="AdvIOZ4FNBdAzbDXDxo8-1" value="分析モジュール&lt;br&gt;(開始)" style="rounded=0;whiteSpace=wrap;html=1;" vertex="1" parent="1">
          <mxGeometry x="280" y="180" width="120" height="60" as="geometry" />
        </mxCell>
        <mxCell id="AdvIOZ4FNBdAzbDXDxo8-9" style="edgeStyle=orthogonalEdgeStyle;rounded=0;orthogonalLoop=1;jettySize=auto;html=1;" edge="1" parent="1" source="AdvIOZ4FNBdAzbDXDxo8-4" target="AdvIOZ4FNBdAzbDXDxo8-8">
          <mxGeometry relative="1" as="geometry" />
        </mxCell>
        <mxCell id="AdvIOZ4FNBdAzbDXDxo8-24" style="edgeStyle=orthogonalEdgeStyle;rounded=0;orthogonalLoop=1;jettySize=auto;html=1;" edge="1" parent="1" source="AdvIOZ4FNBdAzbDXDxo8-4" target="AdvIOZ4FNBdAzbDXDxo8-22">
          <mxGeometry relative="1" as="geometry" />
        </mxCell>
        <mxCell id="AdvIOZ4FNBdAzbDXDxo8-4" value="データの受け取り" style="shape=process;whiteSpace=wrap;html=1;backgroundOutline=1;" vertex="1" parent="1">
          <mxGeometry x="271" y="290" width="138" height="60" as="geometry" />
        </mxCell>
        <mxCell id="AdvIOZ4FNBdAzbDXDxo8-12" style="edgeStyle=orthogonalEdgeStyle;rounded=0;orthogonalLoop=1;jettySize=auto;html=1;" edge="1" parent="1" source="AdvIOZ4FNBdAzbDXDxo8-8" target="AdvIOZ4FNBdAzbDXDxo8-11">
          <mxGeometry relative="1" as="geometry" />
        </mxCell>
        <mxCell id="AdvIOZ4FNBdAzbDXDxo8-23" style="edgeStyle=orthogonalEdgeStyle;rounded=0;orthogonalLoop=1;jettySize=auto;html=1;" edge="1" parent="1" source="AdvIOZ4FNBdAzbDXDxo8-8" target="AdvIOZ4FNBdAzbDXDxo8-22">
          <mxGeometry relative="1" as="geometry" />
        </mxCell>
        <mxCell id="AdvIOZ4FNBdAzbDXDxo8-8" value="バリデーション" style="shape=process;whiteSpace=wrap;html=1;backgroundOutline=1;" vertex="1" parent="1">
          <mxGeometry x="260" y="400" width="159" height="60" as="geometry" />
        </mxCell>
        <mxCell id="AdvIOZ4FNBdAzbDXDxo8-14" style="edgeStyle=orthogonalEdgeStyle;rounded=0;orthogonalLoop=1;jettySize=auto;html=1;" edge="1" parent="1" source="AdvIOZ4FNBdAzbDXDxo8-11" target="AdvIOZ4FNBdAzbDXDxo8-13">
          <mxGeometry relative="1" as="geometry" />
        </mxCell>
        <mxCell id="AdvIOZ4FNBdAzbDXDxo8-15" value="&lt;font style=&quot;font-size: 13px;&quot;&gt;表形式&lt;/font&gt;" style="edgeLabel;html=1;align=center;verticalAlign=middle;resizable=0;points=[];" connectable="0" vertex="1" parent="AdvIOZ4FNBdAzbDXDxo8-14">
          <mxGeometry x="-0.2" y="-1" relative="1" as="geometry">
            <mxPoint x="-24" y="19" as="offset" />
          </mxGeometry>
        </mxCell>
        <mxCell id="AdvIOZ4FNBdAzbDXDxo8-20" value="" style="edgeStyle=orthogonalEdgeStyle;rounded=0;orthogonalLoop=1;jettySize=auto;html=1;" edge="1" parent="1" source="AdvIOZ4FNBdAzbDXDxo8-11" target="AdvIOZ4FNBdAzbDXDxo8-19">
          <mxGeometry relative="1" as="geometry" />
        </mxCell>
        <mxCell id="AdvIOZ4FNBdAzbDXDxo8-21" value="グラフ形式" style="edgeLabel;html=1;align=center;verticalAlign=middle;resizable=0;points=[];" connectable="0" vertex="1" parent="AdvIOZ4FNBdAzbDXDxo8-20">
          <mxGeometry x="-0.1861" y="-1" relative="1" as="geometry">
            <mxPoint x="37" y="11" as="offset" />
          </mxGeometry>
        </mxCell>
        <mxCell id="AdvIOZ4FNBdAzbDXDxo8-11" value="表形式またはグラフ形式" style="rhombus;whiteSpace=wrap;html=1;" vertex="1" parent="1">
          <mxGeometry x="208.5" y="510" width="262" height="80" as="geometry" />
        </mxCell>
        <mxCell id="AdvIOZ4FNBdAzbDXDxo8-30" style="edgeStyle=orthogonalEdgeStyle;rounded=0;orthogonalLoop=1;jettySize=auto;html=1;exitX=0.5;exitY=1;exitDx=0;exitDy=0;" edge="1" parent="1" source="AdvIOZ4FNBdAzbDXDxo8-13" target="AdvIOZ4FNBdAzbDXDxo8-28">
          <mxGeometry relative="1" as="geometry" />
        </mxCell>
        <mxCell id="AdvIOZ4FNBdAzbDXDxo8-13" value="表の生成" style="rounded=1;whiteSpace=wrap;html=1;arcSize=50;" vertex="1" parent="1">
          <mxGeometry x="480" y="640" width="120" height="60" as="geometry" />
        </mxCell>
        <mxCell id="AdvIOZ4FNBdAzbDXDxo8-19" value="グラフの生成" style="rounded=1;whiteSpace=wrap;html=1;arcSize=50;" vertex="1" parent="1">
          <mxGeometry x="280" y="640" width="120" height="60" as="geometry" />
        </mxCell>
        <mxCell id="AdvIOZ4FNBdAzbDXDxo8-22" value="エラー終了" style="rounded=0;whiteSpace=wrap;html=1;" vertex="1" parent="1">
          <mxGeometry x="510" y="400" width="120" height="60" as="geometry" />
        </mxCell>
        <mxCell id="AdvIOZ4FNBdAzbDXDxo8-32" value="" style="edgeStyle=orthogonalEdgeStyle;rounded=0;orthogonalLoop=1;jettySize=auto;html=1;" edge="1" parent="1" target="AdvIOZ4FNBdAzbDXDxo8-28">
          <mxGeometry relative="1" as="geometry">
            <mxPoint x="339.7399999999999" y="700" as="sourcePoint" />
            <mxPoint x="339.2638095238094" y="870" as="targetPoint" />
          </mxGeometry>
        </mxCell>
        <mxCell id="AdvIOZ4FNBdAzbDXDxo8-34" style="edgeStyle=orthogonalEdgeStyle;rounded=0;orthogonalLoop=1;jettySize=auto;html=1;" edge="1" parent="1" source="AdvIOZ4FNBdAzbDXDxo8-28" target="AdvIOZ4FNBdAzbDXDxo8-33">
          <mxGeometry relative="1" as="geometry" />
        </mxCell>
        <mxCell id="AdvIOZ4FNBdAzbDXDxo8-28" value="ページ遷移" style="shape=process;whiteSpace=wrap;html=1;backgroundOutline=1;" vertex="1" parent="1">
          <mxGeometry x="280" y="820" width="120" height="60" as="geometry" />
        </mxCell>
        <mxCell id="AdvIOZ4FNBdAzbDXDxo8-36" style="edgeStyle=orthogonalEdgeStyle;rounded=0;orthogonalLoop=1;jettySize=auto;html=1;" edge="1" parent="1" source="AdvIOZ4FNBdAzbDXDxo8-33" target="AdvIOZ4FNBdAzbDXDxo8-35">
          <mxGeometry relative="1" as="geometry" />
        </mxCell>
        <mxCell id="AdvIOZ4FNBdAzbDXDxo8-33" value="データ送信" style="shape=process;whiteSpace=wrap;html=1;backgroundOutline=1;" vertex="1" parent="1">
          <mxGeometry x="279.5" y="940" width="120" height="60" as="geometry" />
        </mxCell>
        <mxCell id="AdvIOZ4FNBdAzbDXDxo8-35" value="分析モジュール&lt;br&gt;(終了)" style="rounded=0;whiteSpace=wrap;html=1;" vertex="1" parent="1">
          <mxGeometry x="279.5" y="1060" width="120" height="60" as="geometry" />
        </mxCell>
      </root>
    </mxGraphModel>
  </diagram>
</mxfile>
